<svg width="22" height="21" viewBox="0 0 22 21" fill="none" xmlns="http://www.w3.org/2000/svg">
<path d="M3.03083 18.5903H18.969C20.8937 18.5903 21.8605 17.6764 21.8605 15.8659V5.13375C21.8605 3.32325 20.8937 2.40938 18.969 2.40938H3.03083C1.11565 2.40975 0.139404 3.315 0.139404 5.13375V15.8663C0.139404 17.6854 1.11565 18.5903 3.03083 18.5903ZM15.4333 10.4783C15.0189 10.1269 14.5494 9.942 14.0524 9.942C13.5366 9.942 13.0852 10.1093 12.6617 10.4696L8.50019 14.0205L6.79676 12.5438C6.4098 12.2186 5.99533 12.0428 5.55376 12.0428C5.14833 12.0428 4.75233 12.21 4.37519 12.5351L1.62205 14.8988V5.205C1.62205 4.29075 2.13748 3.825 3.05833 3.825H18.9415C19.853 3.825 20.3778 4.29075 20.3778 5.205V14.9081L15.4333 10.4783ZM6.99908 10.575C8.18708 10.575 9.16294 9.6435 9.16294 8.50088C9.16294 7.36725 8.18708 6.42675 6.99908 6.42675C5.80244 6.42675 4.82658 7.36725 4.82658 8.50088C4.82762 9.0506 5.05683 9.57753 5.46402 9.96628C5.8712 10.355 6.42318 10.5739 6.99908 10.575Z" fill="black"/>
</svg>
