<svg width="17" height="16" viewBox="0 0 17 16" fill="none" xmlns="http://www.w3.org/2000/svg">
<path d="M15.1635 13.1684L12.0395 10.2281C12.7916 9.28575 13.1976 8.13865 13.1963 6.96C13.1963 3.94938 10.5938 1.5 7.395 1.5C4.19621 1.5 1.59375 3.94938 1.59375 6.96C1.59375 9.97063 4.19621 12.42 7.395 12.42C8.64732 12.4213 9.86611 12.0392 10.8674 11.3313L13.9915 14.2716C14.1496 14.4046 14.3559 14.4756 14.5679 14.47C14.7799 14.4645 14.9816 14.3827 15.1316 14.2415C15.2816 14.1004 15.3685 13.9105 15.3744 13.711C15.3804 13.5114 15.3049 13.3173 15.1635 13.1684ZM3.25125 6.96C3.25125 6.18865 3.49428 5.43463 3.9496 4.79328C4.40492 4.15192 5.05208 3.65205 5.80926 3.35687C6.56643 3.06169 7.3996 2.98446 8.20341 3.13494C9.00722 3.28542 9.74556 3.65686 10.3251 4.20228C10.9046 4.74771 11.2992 5.44262 11.4591 6.19915C11.619 6.95567 11.537 7.73983 11.2233 8.45247C10.9097 9.1651 10.3786 9.77419 9.69715 10.2027C9.01571 10.6313 8.21456 10.86 7.395 10.86C6.29641 10.8588 5.2432 10.4475 4.46638 9.71635C3.68956 8.98522 3.25257 7.99396 3.25125 6.96Z" fill="black" fill-opacity="0.5"/>
</svg>
