<svg width="15" height="15" viewBox="0 0 15 15" fill="none" xmlns="http://www.w3.org/2000/svg">
<path d="M10.9375 1.5625C10.6505 1.56239 10.3673 1.62818 10.1097 1.7548C9.85208 1.88143 9.62699 2.0655 9.45175 2.29284C9.27652 2.52019 9.15583 2.78473 9.09897 3.06608C9.04211 3.34743 9.0506 3.63808 9.12379 3.91563C9.07853 3.92519 9.03493 3.94141 8.99442 3.96375L7.27129 4.90312L5.08004 6.15625C5.05811 6.16872 5.03721 6.18294 5.01754 6.19875C4.7127 6.01847 4.36303 5.92821 4.00901 5.93843C3.65499 5.94865 3.31111 6.05893 3.01717 6.25649C2.72323 6.45406 2.49126 6.73083 2.3481 7.05478C2.20495 7.37872 2.15647 7.73658 2.20828 8.08694C2.26009 8.43729 2.41007 8.76581 2.64085 9.03445C2.87163 9.3031 3.17378 9.50089 3.51232 9.60493C3.85086 9.70897 4.21194 9.715 4.55376 9.62232C4.89559 9.52964 5.20417 9.34204 5.44379 9.08125L7.27254 10.0981L9.11879 11.105C9.00702 11.5475 9.06047 12.0155 9.26911 12.4214C9.47776 12.8273 9.82727 13.1432 10.2521 13.3098C10.677 13.4764 11.1481 13.4823 11.577 13.3265C12.0059 13.1706 12.3633 12.8637 12.5821 12.4632C12.8009 12.0627 12.8662 11.5961 12.7656 11.151C12.665 10.7058 12.4055 10.3126 12.0358 10.0451C11.6661 9.77761 11.2114 9.65412 10.7572 9.69782C10.3029 9.74152 9.88014 9.9494 9.56817 10.2825L7.72629 9.2775L5.88505 8.255C5.99708 7.79086 5.92825 7.30148 5.69254 6.88625L7.7288 5.7225L9.44317 4.78688C9.48395 4.76479 9.52123 4.73678 9.55379 4.70375C9.76436 4.9337 10.0289 5.10752 10.3236 5.20946C10.6183 5.3114 10.9337 5.33825 11.2414 5.28757C11.549 5.2369 11.8392 5.11031 12.0856 4.91925C12.332 4.72819 12.5268 4.4787 12.6525 4.19337C12.7782 3.90803 12.8308 3.59585 12.8054 3.28509C12.7801 2.97432 12.6776 2.67478 12.5074 2.41358C12.3371 2.15238 12.1044 1.93777 11.8303 1.78916C11.5562 1.64056 11.2493 1.56265 10.9375 1.5625Z" fill="black" fill-opacity="0.5"/>
</svg>
