<svg width="28" height="28" viewBox="0 0 28 28" fill="none" xmlns="http://www.w3.org/2000/svg">
<path d="M5.97921 5.83333C5.01227 5.83333 4.08494 6.21744 3.40121 6.90117C2.71749 7.58489 2.33337 8.51223 2.33337 9.47916V18.5208C2.33337 19.4878 2.71749 20.4151 3.40121 21.0988C4.08494 21.7825 5.01227 22.1667 5.97921 22.1667H15.0209C15.9878 22.1667 16.9151 21.7825 17.5989 21.0988C18.2826 20.4151 18.6667 19.4878 18.6667 18.5208V17.8786L22.6958 20.6605C23.9535 21.5285 25.6685 20.6284 25.6685 19.1001V8.89933C25.6685 7.37099 23.9535 6.47091 22.6958 7.33891L18.6667 10.1214V9.47916C18.6667 8.51223 18.2826 7.58489 17.5989 6.90117C16.9151 6.21744 15.9878 5.83333 15.0209 5.83333H5.97921ZM18.6667 11.893L23.5241 8.53883C23.5898 8.49349 23.6667 8.46699 23.7463 8.46219C23.826 8.4574 23.9055 8.47449 23.9761 8.51162C24.0468 8.54875 24.106 8.60451 24.1472 8.67285C24.1884 8.74119 24.2102 8.81951 24.2101 8.89933V19.1001C24.2101 19.1798 24.1883 19.2581 24.147 19.3263C24.1057 19.3946 24.0465 19.4503 23.9759 19.4873C23.9052 19.5244 23.8258 19.5414 23.7462 19.5366C23.6666 19.5318 23.5898 19.5053 23.5241 19.46L18.6667 16.1058V11.893ZM3.79171 9.47916C3.79171 8.899 4.02218 8.3426 4.43241 7.93237C4.84265 7.52213 5.39905 7.29166 5.97921 7.29166H15.0209C15.601 7.29166 16.1574 7.52213 16.5677 7.93237C16.9779 8.3426 17.2084 8.899 17.2084 9.47916V18.5208C17.2084 19.101 16.9779 19.6574 16.5677 20.0676C16.1574 20.4779 15.601 20.7083 15.0209 20.7083H5.97921C5.39905 20.7083 4.84265 20.4779 4.43241 20.0676C4.02218 19.6574 3.79171 19.101 3.79171 18.5208V9.47916Z" fill="black"/>
</svg>
