<svg width="112" height="28" viewBox="0 0 112 28" fill="none" xmlns="http://www.w3.org/2000/svg">
<path d="M0.8 0.279999H14.84V5.48H6.8V11.36H13.76V16.56H6.8V22.8H14.84V28H0.8V0.279999ZM17.4759 12.12H26.9159V17.32H17.4759V12.12ZM44.5769 0.279999V5.48H39.5769V28H33.4969V5.48H28.4969V0.279999H44.5769ZM58.4213 28L57.2613 21.6H51.7813L50.7013 28H44.9813L50.4213 0.279999H58.7813L64.1413 28H58.4213ZM52.6213 16.52H56.3813L54.4613 5.8L52.6213 16.52ZM72.1516 18V28H66.1516V0.279999H75.1916C77.3782 0.279999 79.0849 0.799999 80.3116 1.84C81.5382 2.88 82.1516 4.4 82.1516 6.4V11.52C82.1516 14.72 81.0582 16.72 78.8716 17.52L83.2316 28H76.6316L72.9116 18H72.1516ZM72.1516 5.4V13.24H74.5116C75.1249 13.24 75.5516 13.1067 75.7916 12.84C76.0316 12.5733 76.1516 12.1067 76.1516 11.44V6.92C76.1516 6.33333 76.0182 5.93333 75.7516 5.72C75.4849 5.50667 75.0716 5.4 74.5116 5.4H72.1516ZM85.4484 0.279999H91.5284V28H85.4484V0.279999ZM105.376 0.279999H111.856L105.896 14.2L111.856 28H105.336L102.776 20.44L100.056 28H93.5359L99.4559 14.2L93.5359 0.279999H100.016L102.776 7.92L105.376 0.279999Z" fill="black"/>
</svg>
